<?xml version="1.0" encoding="UTF-8" standalone="no"?>
<!-- Created with Inkscape (http://www.inkscape.org/) -->

<svg
   xmlns:dc="http://purl.org/dc/elements/1.1/"
   xmlns:cc="http://creativecommons.org/ns#"
   xmlns:rdf="http://www.w3.org/1999/02/22-rdf-syntax-ns#"
   xmlns:svg="http://www.w3.org/2000/svg"
   xmlns="http://www.w3.org/2000/svg"
   version="1.1"
   width="600"
   height="600"
   id="svg3443">
  <defs
     id="defs3445" />
  <metadata
     id="metadata3448">
    <rdf:RDF>
      <cc:Work
         rdf:about="">
        <dc:format>image/svg+xml</dc:format>
        <dc:type
           rdf:resource="http://purl.org/dc/dcmitype/StillImage" />
        <dc:title></dc:title>
      </cc:Work>
    </rdf:RDF>
  </metadata>
  <g
     transform="translate(-247.48986,87.6157)"
     id="layer1">
    <path
       d="m 247.48986,-50.115696 c 0,-20.710004 16.79,-37.500004 37.5,-37.500004 l 525,0 c 20.71,0 37.5,16.79 37.5,37.500004 l 0,524.999996 c 0,20.71 -16.79,37.5 -37.5,37.5 l -525,0 c -20.71,0 -37.5,-16.79 -37.5,-37.5 l 0,-524.999996"
       id="path42"
       style="fill:#000000;fill-opacity:1;fill-rule:nonzero;stroke:none" />
    <path
       d="m 324.39511,215.64184 c -4.18553,0 -23.44512,0 -23.44512,0 0,0 -4.18553,-4.23513 -3.34978,-11.00852 0,-5.92499 32.65531,-60.10517 35.16939,-78.72853 0,-8.46674 0,-21.1651 0,-32.170134 0,-11.849959 22.60937,-33.01506 25.12,-50.793489 4.18552,-12.69836 15.23917,-37.2467037 36.00512,-44.8684971 9.21022,-3.383219 11.72086,-11.8499599 13.39573,-25.3932659 5.02469,-11.853461 53.72739,-24.732638 90.43414,-31.325213 45.66242,-8.199017 94.61619,-1.693349 118.90047,1.693347 15.23915,2.030618 115.5507,60.9535774 126.4358,167.620602 2.51407,24.54833 36.00513,58.41183 46.05452,66.03014 l -0.83919,12.69838 7.53533,6.77339 c -2.51064,45.71344 -41.02639,90.58198 -65.31066,94.81359 -13.89788,2.37139 -21.97658,12.93829 -25.95574,27.09009 -4.97999,17.6915 1.39974,34.14167 16.74552,44.0201 l 10.88512,-4.23162 c 5.02469,-6.77339 33.13336,-23.24791 31.8196,-10.16009 -0.86326,8.59888 -10.04938,9.31167 -15.07407,16.08506 8.37448,11.00504 1.67834,33.01509 1.67834,33.01509 -17.58471,8.46673 -7.53877,15.24013 -7.53877,15.24013 8.37448,20.3167 29.30899,18.62334 44.37961,36.40177 8.20596,9.81932 10.02531,38.99155 10.04938,38.94006 l -462.20964,0 c 0,0 0,-7.28105 0,-7.61834 0.83918,-21.16511 97.6324,-78.39124 102.15497,-116.48637 3.5183,-30.47679 -58.61453,-39.78844 -97.96944,-42.66749 0,0 -14.5685,-2.201 -15.07063,-11.00504 -1.17278,-11.51266 3.85191,-18.62335 4.18895,-24.54832 0.50213,-7.61834 -0.83915,-27.0901 -0.83915,-27.0901 l 3.34979,-11.85343 -4.18897,-5.08004 4.18897,-14.39173 c 0,0 -0.83918,-11.00153 -6.69959,-11.00153"
       id="path50"
       style="fill:#ffffff;fill-opacity:1;fill-rule:nonzero;stroke:none" />
    <g
       id="text4274"
       style="font-size:297.6178894px;font-style:normal;font-variant:normal;font-weight:normal;font-stretch:normal;text-align:center;line-height:100%;letter-spacing:0px;word-spacing:0px;writing-mode:lr-tb;text-anchor:middle;fill:#000000;fill-opacity:1;stroke:none;font-family:Roadgeek 2005 Series C;-inkscape-font-specification:Roadgeek 2005 Series C">
      <path
         d="m 343.53624,287.38431 c 0.39681,-6.746 0.79364,-12.59915 1.19047,-17.55946 0.59523,-4.96027 1.19046,-9.42454 1.78571,-13.3928 0.79363,-3.96821 1.68649,-7.73803 2.67856,-11.30948 1.19046,-3.76978 2.57934,-7.83722 4.16665,-12.20234 8.13486,-20.83317 18.8491,-37.40055 32.14273,-49.70218 1.19042,-0.99196 2.38089,-1.98402 3.57142,-2.97618 1.38882,-1.19037 2.97612,-2.48004 4.76189,-3.86903 1.98405,-1.38878 4.26579,-3.07528 6.84521,-5.05951 2.77769,-1.984 6.15069,-4.36494 10.11901,-7.14283 6.5475,-4.56334 10.91256,-8.43237 13.09518,-11.6071 2.38085,-3.17445 3.57132,-7.24189 3.57142,-12.20233 -1e-4,-3.76968 -0.79375,-7.34109 -2.38095,-10.71424 -1.38897,-3.37285 -3.37309,-6.34902 -5.95235,-8.92854 -2.38103,-2.57919 -5.35721,-4.5633 -8.92854,-5.95236 -3.37308,-1.58712 -6.94449,-2.38077 -10.71424,-2.38094 -3.96831,1.7e-4 -7.63892,0.79382 -11.01187,2.38094 -3.37305,1.38906 -6.34923,3.37317 -8.92853,5.95236 -2.38099,2.57952 -4.36511,5.55569 -5.95236,8.92854 -1.38892,3.37315 -2.08337,6.94456 -2.08333,10.71424 l -27.97608,0 c 0.1984,-7.73791 1.68649,-14.97994 4.46427,-21.72611 2.97616,-6.94424 6.9444,-12.89659 11.90472,-17.85707 4.96026,-5.158517 10.81341,-9.126752 17.55945,-11.904714 6.74595,-2.975978 14.08719,-4.464066 22.02373,-4.464269 7.73799,2.03e-4 14.88081,1.488291 21.42848,4.464269 6.74591,2.976374 12.59906,7.043814 17.55946,12.202334 5.1586,4.96048 9.12683,10.81362 11.90471,17.55945 2.97606,6.74617 4.46415,13.9882 4.46427,21.72611 -1.2e-4,15.87309 -5.65485,28.96826 -16.96422,39.28556 -0.99216,0.79376 -2.08343,1.5874 -3.27379,2.38095 -0.99216,0.59534 -1.98422,1.38898 -2.97618,2.38094 l -6.84521,5.0595 -7.14283,4.76189 -7.73807,5.65474 c -3.17466,2.38103 -6.34925,5.258 -9.52377,8.63092 -2.97625,3.17466 -5.95242,6.74607 -8.92854,10.71424 -2.77782,3.76989 -5.25797,7.83733 -7.44044,12.20233 -2.18259,4.16671 -3.96829,8.33335 -5.35713,12.49996 -1.19051,2.57939 -2.08337,4.96033 -2.67856,7.14283 -0.39687,1.98415 -0.9921,4.76191 -1.7857,8.3333 l 80.65444,0 0,27.97608 -111.30909,0"
         id="path6496"
         style="font-family:Roadgeek 2005 Series C;-inkscape-font-specification:Roadgeek 2005 Series C" />
      <path
         d="m 584.0487,115.9564 c -8.92864,10.11917 -16.86511,21.62705 -23.80943,34.52368 -6.9445,12.69849 -13.19447,27.08334 -18.74993,43.15459 -5.35719,15.2778 -9.22622,30.25788 -11.60709,44.9403 -2.38101,14.48411 -3.9683,30.75387 -4.76189,48.80934 l -27.97608,0 0,-4.16665 c -3e-5,-4.96029 0.29759,-10.71423 0.89285,-17.26184 0.59521,-6.54757 1.38885,-13.29356 2.38094,-20.23802 1.19044,-7.14278 2.48012,-14.2856 3.86904,-21.42848 1.38884,-7.34118 2.97614,-14.28559 4.76188,-20.83326 2.18249,-7.93638 4.46422,-15.47603 6.84522,-22.61896 2.5793,-7.34112 5.35706,-14.48395 8.3333,-21.42848 3.17453,-6.94429 6.64673,-13.8887 10.41662,-20.83326 3.76976,-7.14267 8.13481,-14.68232 13.09519,-22.61896 l -74.99971,0 0,-27.976078 111.30909,0 0,27.976078 0,0"
         id="path6498"
         style="font-family:Roadgeek 2005 Series C;-inkscape-font-specification:Roadgeek 2005 Series C" />
      <path
         d="m 737.04753,187.3847 c -1.3e-4,15.2778 -0.89298,28.27377 -2.67856,38.98794 -1.58742,10.71429 -4.46439,20.83329 -8.63092,30.35703 -4.96041,11.90473 -11.21038,20.63485 -18.74992,26.19037 -7.34134,5.35712 -16.66669,8.03568 -27.97608,8.03568 -11.90479,0 -21.62696,-2.67856 -29.16656,-8.03568 -7.34128,-5.55552 -13.49204,-14.28564 -18.45231,-26.19037 -4.16667,-9.72215 -7.14285,-19.84115 -8.92853,-30.35703 -1.58732,-10.71417 -2.38096,-23.71014 -2.38095,-38.98794 -10e-6,-15.07919 0.79363,-27.97596 2.38095,-38.69033 1.78568,-10.9125 4.76186,-21.13071 8.92853,-30.65464 5.15868,-11.90454 11.40865,-20.43624 18.74993,-25.59514 7.5396,-5.356921 17.16257,-8.03548 28.86894,-8.035683 11.5078,2.03e-4 20.93236,2.678762 28.2737,8.035683 7.34112,5.1589 13.49189,13.88902 18.4523,26.19037 1.984,4.96047 3.6705,9.92076 5.05951,14.8809 1.58716,4.96045 2.77763,10.21836 3.57141,15.77375 0.99193,5.35725 1.68637,11.2104 2.08333,17.55945 0.39669,6.15089 0.5951,12.99609 0.59523,20.53564 m -27.38084,0 c -1.1e-4,-5.55543 -0.19852,-10.61493 -0.59524,-15.17852 -0.19852,-4.56335 -0.59534,-8.73 -1.19047,-12.49995 -0.39693,-3.9681 -0.99216,-7.73793 -1.78571,-11.30948 -0.79375,-3.57127 -1.6866,-7.14268 -2.67856,-10.71424 -2.57945,-8.92838 -5.85324,-15.37676 -9.82139,-19.34516 -3.76991,-3.96807 -8.631,-5.95219 -14.58327,-5.95236 -12.30161,1.7e-4 -20.73411,8.23426 -25.29752,24.70228 -2.381,7.5398 -4.0675,15.17865 -5.05951,22.91658 -0.79369,7.53977 -1.19052,16.86513 -1.19047,27.97608 -5e-5,5.35722 0.0992,10.31751 0.29762,14.8809 0.39677,4.36514 0.7936,8.53179 1.19047,12.49995 0.59519,3.76989 1.28963,7.53972 2.08332,11.30948 0.7936,3.76988 1.68645,7.63891 2.67857,11.6071 4.56341,16.46822 12.99591,24.70231 25.29752,24.70228 5.95227,3e-5 10.81336,-1.98409 14.58327,-5.95236 3.96815,-3.9682 7.24194,-10.21817 9.82139,-18.74992 1.19037,-3.96819 2.18243,-7.73801 2.97618,-11.30948 0.79354,-3.76977 1.38878,-7.63879 1.78571,-11.6071 0.59513,-3.96816 0.99195,-8.13481 1.19047,-12.49995 0.1983,-4.56339 0.29751,-9.72209 0.29762,-15.47613"
         id="path6500"
         style="font-family:Roadgeek 2005 Series C;-inkscape-font-specification:Roadgeek 2005 Series C" />
    </g>
  </g>
</svg>
